# xmcd CD database file
#
# Track frame offsets:
#	150
#	32952
#	56447
#	94965
#	121947
#	153005
#	168507
#	184457
#	201050
#	216432
#	229515
#	245955
#	259177
#	272707
#	286790
#	302405
#
# Disc length: 4218 seconds
#
# Revision: 1
# Processed by: cddbd v1.5.2PL0 Copyright (c) Steve Scherf et al.
# Submitted via: CDex 1.51
#
DISCID=e6107810
DTITLE=Lester Young - Vol. 193 - Lester Young 1950-1958
DYEAR=1994
DGENRE=Jazz
TTITLE0=Mean to me
TTITLE1=Red Boy Blues
TTITLE2=She's funny that way
TTITLE3=They can't take that away from me
TTITLE4=Gigantic Blues
TTITLE5=These foolish Things
TTITLE6=Almost like beeing in love
TTITLE7=I'm confessin
TTITLE8=On the Sunny side of the street
TTITLE9=Let's fall in Love
TTITLE10=Polka dots and Moonbeams
TTITLE11=Thou Swell
TTITLE12=Too Marvellous for words
TTITLE13=September in the Rain
TTITLE14=Neenah
TTITLE15=Jeepers Creepers
EXTD=YEAR: 1994
EXTT0=
EXTT1=
EXTT2=
EXTT3=
EXTT4=
EXTT5=
EXTT6=
EXTT7=
EXTT8=
EXTT9=
EXTT10=
EXTT11=
EXTT12=
EXTT13=
EXTT14=
EXTT15=
PLAYORDER=
